<svg xmlns="http://www.w3.org/2000/svg" xmlns:xlink="http://www.w3.org/1999/xlink" id="Layer_1" x="0" y="0" version="1.1" viewBox="0 0 310 572" xml:space="preserve" style="enable-background:new 0 0 310 572"><style type="text/css">.st0{fill:#231f1f}.st1{fill:none;stroke:#231f1f;stroke-width:3}.st2{fill:#414042}.st3{fill:none;stroke:#58595b;stroke-width:2}</style><g><g><path d="M280.7,106.5V35.2c0-19.4-15.8-35.1-35.2-35.1H66c-19.5,0-35.2,15.7-35.2,35.1v23.7v22.4v25.3v39.6v9.3v39.6 v294.3c0,19.4,15.8,35.1,35.2,35.1h179.4c19.5,0,35.2-15.7,35.2-35.1V146.2v-39.7H280.7z M272.5,464c0,1.1-0.9,2.1-2,2.1H40.9 c-1.1,0-2-0.9-2-2.1V50.1c0-1.1,0.9-2.1,2-2.1h229.5c1.1,0,2,0.9,2,2.1V464H272.5z" class="st0" transform="translate(0.000000, 35.061296) translate(0.000000, -0.000000)"/><path d="M280.7,106.5V35.2c0-19.4-15.8-35.1-35.2-35.1H66c-19.5,0-35.2,15.7-35.2,35.1v46v25.3v39.6v9.3V195v294.3 c0,19.4,15.8,35.1,35.2,35.1h179.4c19.5,0,35.2-15.7,35.2-35.1V146.2v-39.7H280.7z" class="st1" transform="translate(0.000000, 35.061296) translate(0.000000, -0.000000)"/><path d="M134.7,494.7c0-11.3,9.2-20.4,20.4-20.4c11.3,0,20.4,9.1,20.4,20.4s-9.2,20.4-20.4,20.4 C143.8,515.1,134.7,506,134.7,494.7L134.7,494.7L134.7,494.7z" class="st2" transform="translate(0.000000, 35.061296) translate(0.000000, -0.000000)"/><path d="M134.7,494.7c0-11.3,9.2-20.4,20.4-20.4c11.3,0,20.4,9.1,20.4,20.4s-9.2,20.4-20.4,20.4 C143.8,515.1,134.7,506,134.7,494.7L134.7,494.7L134.7,494.7z" class="st3" transform="translate(0.000000, 35.061296) translate(0.000000, -0.000000)"/></g></g></svg>