<?xml version="1.0" encoding="utf-8"?>
<!-- Generator: Adobe Illustrator 21.0.2, SVG Export Plug-In . SVG Version: 6.00 Build 0)  -->
<svg version="1.1" id="Layer_1" xmlns:sketch="http://www.bohemiancoding.com/sketch/ns"
	 xmlns="http://www.w3.org/2000/svg" xmlns:xlink="http://www.w3.org/1999/xlink" x="0px" y="0px" viewBox="0 0 310 572"
	 style="enable-background:new 0 0 310 572;" xml:space="preserve">
<style type="text/css">
	.st0{fill:#231F1F;}
	.st1{fill:none;stroke:#231F1F;stroke-width:3;}
	.st2{fill:#414042;}
	.st3{fill:none;stroke:#58595B;stroke-width:2;}
</style>
<g transform="translate(0.000000, 35.061296)">
	<g transform="translate(0.000000, -0.000000)">
		<path class="st0" d="M280.7,106.5V35.2c0-19.4-15.8-35.1-35.2-35.1H66c-19.5,0-35.2,15.7-35.2,35.1v23.7v22.4v25.3v39.6v9.3v39.6
			v294.3c0,19.4,15.8,35.1,35.2,35.1h179.4c19.5,0,35.2-15.7,35.2-35.1V146.2v-39.7H280.7z M272.5,464c0,1.1-0.9,2.1-2,2.1H40.9
			c-1.1,0-2-0.9-2-2.1V50.1c0-1.1,0.9-2.1,2-2.1h229.5c1.1,0,2,0.9,2,2.1V464H272.5z"/>
		<path class="st1" d="M280.7,106.5V35.2c0-19.4-15.8-35.1-35.2-35.1H66c-19.5,0-35.2,15.7-35.2,35.1v46v25.3v39.6v9.3V195v294.3
			c0,19.4,15.8,35.1,35.2,35.1h179.4c19.5,0,35.2-15.7,35.2-35.1V146.2v-39.7H280.7z"/>
		<path class="st2" d="M134.7,494.7c0-11.3,9.2-20.4,20.4-20.4c11.3,0,20.4,9.1,20.4,20.4s-9.2,20.4-20.4,20.4
			C143.8,515.1,134.7,506,134.7,494.7L134.7,494.7L134.7,494.7z"/>
		<path class="st3" d="M134.7,494.7c0-11.3,9.2-20.4,20.4-20.4c11.3,0,20.4,9.1,20.4,20.4s-9.2,20.4-20.4,20.4
			C143.8,515.1,134.7,506,134.7,494.7L134.7,494.7L134.7,494.7z"/>
	</g>
</g>
</svg>
